<?xml version="1.0" encoding="utf-8" ?><svg xmlns="http://www.w3.org/2000/svg" xmlns:xlink="http://www.w3.org/1999/xlink" width="4096" height="4096" viewBox="0 0 4096 4096"><path fill="#071323" transform="scale(3.26635 3.26635)" d="M0 0L1254 0L1254 1254L0 1254L0 0Z"/><defs><linearGradient id="gradient_0" gradientUnits="userSpaceOnUse" x1="723.40253" y1="815.53522" x2="553.25671" y2="586.34857"><stop offset="0" stop-color="#0063FE"/><stop offset="1" stop-color="#2CD1FD"/></linearGradient></defs><path fill="url(#gradient_0)" transform="scale(3.26635 3.26635)" d="M631.838 535.312C639.39 534.78 643.743 536.438 650.218 540.28C670.306 552.2 690.231 564.463 710.307 576.409L749.453 599.737C763.478 608.082 779.453 616.647 791.053 627.928C801.826 638.546 809.578 651.841 813.511 666.446C816.826 678.709 816.283 685.162 816.405 697.463C816.604 717.482 816.305 731.84 805.811 749.711C801.481 757.22 795.68 763.779 788.757 768.994C784.277 772.429 775.322 777.496 770.254 780.524L737.977 799.777L691.631 827.341C682.665 832.676 673.75 838.041 664.633 843.129C632.757 860.921 604.368 837.139 577.11 821.016L492.592 771.021C482.109 764.831 469.609 758.133 464.887 746.204C458.369 729.74 465.48 712.339 482.457 706.343C489.646 703.805 497.464 703.659 504.744 705.926C513.792 708.714 528.947 718.547 537.527 723.674L592.304 756.176C608.451 765.805 633.152 785.318 652.333 776.193C670.79 767.413 688.794 754.797 706.689 744.585C714.008 740.408 725.298 734.276 731.569 728.955C736.949 724.459 741.216 718.778 744.034 712.357C753.081 691.81 747.628 662.605 728.836 649.744C716.911 641.583 701.787 633.285 689.177 625.776L607.887 577.476C603.903 575.11 590.79 568.261 588.84 564.306C588.228 563.306 588.476 559.705 589.29 559.177C599.093 552.814 621.24 537.429 631.838 535.312Z"/><defs><linearGradient id="gradient_1" gradientUnits="userSpaceOnUse" x1="736.63354" y1="622.01654" x2="515.69977" y2="433.12509"><stop offset="0" stop-color="#0892FE"/><stop offset="1" stop-color="#49E3FC"/></linearGradient></defs><path fill="url(#gradient_1)" transform="scale(3.26635 3.26635)" d="M633.743 385.935C646.31 384.589 656.851 386.528 667.702 393.076C678.268 399.452 688.741 406.007 699.317 412.356L796.392 471.083C832.782 493.008 814.058 541.977 772.541 530.372C765.298 528.347 753.975 520.453 747.074 516.31L685.892 479.559C676.437 473.888 667.034 468.131 657.388 462.783C646.244 456.603 633.637 456.86 622.593 463.136C602.646 474.471 583.227 486.823 563.268 498.155C557.731 501.307 551.582 504.683 546.568 508.55C541.896 512.154 537.923 516.582 534.843 521.614C521.325 543.759 526.214 577.725 547.695 593.08C553.014 596.882 558.274 599.92 563.901 603.216C571.594 607.674 579.257 612.185 586.887 616.749L650.659 654.685C659.525 659.962 679.762 670.842 687.761 678.306C688.312 678.819 687.807 681.719 687.215 682.143C679.028 688.002 666.382 695.892 657.27 700.099C654.93 701.183 652.471 701.987 649.943 702.496C637.329 704.94 625.792 696.13 615.341 689.982C603.594 683.077 591.882 676.111 580.207 669.084L530.424 639.52C519.492 633.102 507.334 626.588 497.361 619.683C469.195 600.181 457.134 572.302 458.43 538.712C459.267 517.016 457.415 504.084 470.884 484.879C475.336 478.651 480.79 473.205 487.023 468.761C492.834 464.555 502.19 459.394 508.567 455.627L544.678 434.202L591.251 406.34C605.188 398.013 617.532 388.821 633.743 385.935Z"/><defs><linearGradient id="gradient_2" gradientUnits="userSpaceOnUse" x1="413.6911" y1="600.07336" x2="218.51616" y2="625.17981"><stop offset="0" stop-color="#19ABFD"/><stop offset="1" stop-color="#3ED5FC"/></linearGradient></defs><path fill="url(#gradient_2)" transform="scale(3.26635 3.26635)" d="M242.497 594.771C257.104 594.9 265.715 601.575 269.965 615.538L364.585 615.537C372.61 615.537 411.957 614.473 415.365 616.867C416.691 617.815 417.555 619.279 417.743 620.899C418.088 623.949 415.432 628.013 412.531 628.153C400.28 628.74 387.107 628.371 374.867 628.309L270.075 628.279C268.891 631.207 267.821 633.39 266.145 636.083C258.416 648.493 239.993 651.789 228.157 642.826C222.412 638.396 218.646 631.879 217.678 624.689C215.488 608.36 226.724 596.595 242.497 594.771Z"/><path fill="#071323" transform="scale(3.26635 3.26635)" d="M241.143 605.847C249.692 604.265 257.914 609.885 259.543 618.426C261.173 626.966 255.599 635.219 247.069 636.897C238.469 638.588 230.136 632.96 228.493 624.351C226.85 615.743 232.525 607.441 241.143 605.847Z"/><defs><linearGradient id="gradient_3" gradientUnits="userSpaceOnUse" x1="961.04401" y1="598.6861" x2="963.08795" y2="649.13477"><stop offset="0" stop-color="#2DC5FC"/><stop offset="1" stop-color="#19A7FE"/></linearGradient></defs><path fill="url(#gradient_3)" transform="scale(3.26635 3.26635)" d="M1035.91 594.792C1038.99 595.012 1041.49 595.148 1044.48 596.125C1051.23 598.333 1056.78 603.212 1059.84 609.623C1063.01 616.213 1063.41 623.799 1060.94 630.685C1058.5 637.488 1053.34 642.971 1046.7 645.828C1030.27 652.714 1015.79 644.179 1009.85 628.266C976.622 628.775 942.285 628.343 908.966 628.348C900.994 628.378 869.489 629.605 864.011 626.633C860.427 622.238 861.905 616.37 867.796 615.805C873.108 615.295 878.87 615.521 884.242 615.519L913.89 615.515L1009.74 615.578C1013.9 601.568 1021.8 596.127 1035.91 594.792Z"/><path fill="#071323" transform="scale(3.26635 3.26635)" d="M1033.1 605.832C1041.74 604.23 1050.04 609.951 1051.61 618.595C1053.19 627.24 1047.44 635.52 1038.79 637.069C1030.18 638.611 1021.95 632.895 1020.38 624.288C1018.81 615.681 1024.5 607.427 1033.1 605.832Z"/><path fill="#33C5FB" transform="scale(3.26635 3.26635)" d="M293.898 667.552C309.465 666.398 319.165 673.57 323.941 688.079C337.404 688.358 431.787 686.834 435.449 689.038C437.076 690.017 438.119 691.684 438.39 693.545C438.617 695.1 438.293 697.192 437.149 698.369C433.352 702.278 403.049 700.586 396.165 700.553L323.988 700.486C323.371 702.204 322.177 705.231 321.275 706.863C317.763 713.245 311.804 717.923 304.77 719.82C297.743 721.638 290.284 720.619 284.002 716.984C277.829 713.45 273.379 707.535 271.693 700.624C267.783 684.056 278.084 671.299 293.898 667.552Z"/><path fill="#071323" transform="scale(3.26635 3.26635)" d="M294.069 678.707C302.517 676.738 310.973 681.947 313.015 690.377C315.058 698.807 309.923 707.308 301.511 709.424C292.995 711.567 284.365 706.354 282.297 697.819C280.229 689.284 285.516 680.7 294.069 678.707Z"/><path fill="#0D82FC" transform="scale(3.26635 3.26635)" d="M979.269 667.566C983.661 667.439 987.442 667.738 991.622 669.233C998.296 671.584 1003.67 676.636 1006.43 683.152C1009.3 689.774 1009.4 697.265 1006.73 703.966C999.421 722.354 975.07 727.012 961.932 711.705C958.946 708.226 957.651 704.735 956.12 700.51C934.842 700.768 913.135 700.556 891.822 700.566C884.819 700.548 847.489 701.928 844.3 699.657C842.521 698.39 841.345 696.579 841.163 694.373C841.036 692.826 841.461 691.275 842.532 690.125C843.662 688.912 845.003 688.507 846.583 688.316C857.422 687.005 871.226 688.123 882.419 688.15L956.051 688.163C960.111 675.805 966.037 669.684 979.269 667.566Z"/><path fill="#071323" transform="scale(3.26635 3.26635)" d="M978.459 678.715C986.945 676.693 995.466 681.925 997.501 690.408C999.536 698.891 994.317 707.419 985.837 709.467C977.339 711.52 968.788 706.287 966.748 697.786C964.709 689.285 969.955 680.742 978.459 678.715Z"/></svg>